<?xml version="1.0" encoding="UTF-8" standalone="no"?>
<svg
   xmlns:dc="http://purl.org/dc/elements/1.1/"
   xmlns:cc="http://creativecommons.org/ns#"
   xmlns:rdf="http://www.w3.org/1999/02/22-rdf-syntax-ns#"
   xmlns:svg="http://www.w3.org/2000/svg"
   xmlns="http://www.w3.org/2000/svg"
   xmlns:sodipodi="http://sodipodi.sourceforge.net/DTD/sodipodi-0.dtd"
   xmlns:inkscape="http://www.inkscape.org/namespaces/inkscape"
   sodipodi:docname="camera4.svg"
   inkscape:version="1.0 (4035a4f, 2020-05-01)"
   id="svg1113"
   version="1.1"
   viewBox="0 0 210 297"
   height="297mm"
   width="210mm">
  <defs
     id="defs1107" />
  <sodipodi:namedview
     inkscape:window-maximized="0"
     inkscape:window-y="23"
     inkscape:window-x="575"
     inkscape:window-height="921"
     inkscape:window-width="1252"
     showgrid="false"
     inkscape:document-rotation="0"
     inkscape:current-layer="layer1"
     inkscape:document-units="mm"
     inkscape:cy="709.85969"
     inkscape:cx="473.49643"
     inkscape:zoom="1.070672"
     inkscape:pageshadow="2"
     inkscape:pageopacity="0.0"
     borderopacity="1.0"
     bordercolor="#666666"
     pagecolor="#ffffff"
     id="base" />
  <metadata
     id="metadata1110">
    <rdf:RDF>
      <cc:Work
         rdf:about="">
        <dc:format>image/svg+xml</dc:format>
        <dc:type
           rdf:resource="http://purl.org/dc/dcmitype/StillImage" />
        <dc:title></dc:title>
      </cc:Work>
    </rdf:RDF>
  </metadata>
  <g
     id="layer1"
     inkscape:groupmode="layer"
     inkscape:label="Layer 1">
    <path
       d="M 92.548696,85.171626 C 80.052839,90.32465 72.250486,102.21501 62.549172,111.0935 51.032937,123.02562 37.760688,133.88084 29.49856,148.43363 c 12.633062,0.73911 24.601848,5.58025 37.20426,6.59237 8.79823,3.19243 20.992217,4.58056 24.274561,-6.50759 8.461524,-13.47923 18.900959,-25.71974 31.617309,-35.36885 6.95357,-6.59322 13.6376,-13.622215 19.46509,-21.231783 0.75155,-5.174673 -12.92774,-2.962071 -18.11954,-4.581562 -10.10164,-0.478609 -20.14051,-2.550656 -30.237242,-2.439863 l -1.154302,0.27527 z"
       style="fill:none;stroke:#000000;stroke-width:0.264583px;stroke-linecap:butt;stroke-linejoin:miter;stroke-opacity:1"
       id="path1676" />
    <path
       sodipodi:nodetypes="ccccc"
       d="m 29.49856,148.43363 c -0.15766,18.92931 2.450676,38.07802 1.2845,56.72252 1.78638,17.89053 11.130721,18.25795 21.519901,29.49772 7.337078,8.47626 41.935007,15.86295 35.368107,-2.17137 -6.669763,-24.52291 1.44648,-51.96841 -1.862006,-76.88995"
       style="fill:none;stroke:#000000;stroke-width:0.264583px;stroke-linecap:butt;stroke-linejoin:miter;stroke-opacity:1"
       id="path1681" />
    <path
       d="m 181.46189,154.33116 c -8.18331,-4.15757 -19.4498,-3.283 -26.02808,3.35135 -4.30983,6.54634 -5.073,14.65001 -6.57701,22.16253 -0.91415,8.41101 -1.12976,17.43907 2.34462,25.30045 6.79016,10.67091 20.32028,16.40659 32.7128,14.83196 10.59588,-2.6232 16.02298,-13.46344 18.4486,-23.22724 3.24038,-11.68554 3.74041,-25.73219 -4.03875,-35.76306 -4.35459,-4.52972 -10.82606,-6.06028 -16.86218,-6.65599 z"
       style="fill:none;stroke:#000000;stroke-width:0.264583px;stroke-linecap:butt;stroke-linejoin:miter;stroke-opacity:1"
       id="path1689" />
    <path
       d="m 181.46189,154.33116 c 4.08698,2.95128 4.87353,8.35154 7.95156,12.10957 3.43402,5.60041 5.87737,12.27837 4.54399,18.91169 -0.84151,8.11278 -2.80576,16.23252 -6.34576,23.5907 -2.1353,3.56726 -4.77975,6.803 -6.85098,10.41075 -0.67129,-0.28528 -0.9444,0.53665 -1.35822,0.85108"
       style="fill:none;stroke:#000000;stroke-width:0.264583px;stroke-linecap:butt;stroke-linejoin:miter;stroke-opacity:1"
       id="path1707" />
    <path
       sodipodi:nodetypes="ccccccc"
       d="m 167.09017,151.86562 c -7.73623,0.89358 -15.36808,-2.6704 -23.04958,-2.84179 -4.47985,1.90059 -4.57273,10.44108 -4.57273,10.44108 -2.87346,12.35621 -5.40171,26.19592 -5.07006,38.94988 0.95173,4.66237 -0.10453,11.10507 4.47202,13.94974 4.34432,1.92182 9.19843,2.26245 13.73307,3.64124 4.89009,1.03505 11.52133,1.54637 16.40217,2.62949"
       style="fill:none;stroke:#000000;stroke-width:0.264583px;stroke-linecap:butt;stroke-linejoin:miter;stroke-opacity:1"
       id="path1714" />
    <path
       d="m 144.04059,149.02383 c -4.95562,-3.11067 -11.49505,-0.9917 -15.2729,3.03965 -3.87142,3.8251 -6.01501,8.94235 -8.99563,13.41735 -3.53328,6.89285 -4.53353,14.92175 -3.81584,22.55966 1.74656,6.994 3.74045,14.28738 8.2045,20.09285 3.01095,3.36515 7.35048,5.4533 11.68966,6.49124 2.49073,0.0313 5.65143,0.58812 7.76994,-0.97452"
       style="fill:none;stroke:#000000;stroke-width:0.264583px;stroke-linecap:butt;stroke-linejoin:miter;stroke-opacity:1"
       id="path1721" />
    <path
       d="m 134.36215,148.3681 c -5.89821,-7.78152 -16.63712,-3.04895 -21.24024,3.57353 -11.05462,10.29785 -17.126598,26.63441 -12.11475,41.36883 3.76005,8.28003 5.53463,17.98078 12.04873,24.64142 7.23445,6.76024 16.06267,0.56364 22.79446,-3.3273"
       style="fill:none;stroke:#000000;stroke-width:0.264583px;stroke-linecap:butt;stroke-linejoin:miter;stroke-opacity:1"
       id="path1725" />
    <path
       d="m 64.095018,129.61437 c -1.926657,-0.46381 -3.58049,0.94556 -4.996774,2.03556 -1.248734,0.85621 -2.694042,1.60348 -3.351689,3.05509 -0.673534,1.31497 -0.91862,2.88684 -0.59974,4.3282 0.709063,1.63153 2.598525,2.08912 4.063054,2.8055 3.314975,1.3744 7.519067,1.4691 10.382522,-0.94933 1.817875,-1.38985 3.628136,-3.31832 3.581313,-5.76255 0.28962,-1.58635 0.07839,-3.33012 -0.990406,-4.60081 -1.222581,-1.55234 -3.47933,-2.23017 -5.328769,-1.47249 -0.894082,0.27971 -1.804526,0.64097 -2.759511,0.56083 z"
       style="fill:none;stroke:#000000;stroke-width:0.264583px;stroke-linecap:butt;stroke-linejoin:miter;stroke-opacity:1"
       id="path1734" />
    <path
       d="m 55.146815,139.03322 c 0.237372,2.01811 1.838047,3.85167 3.477746,4.89824 2.477942,0.79491 5.172654,1.08879 7.768012,0.92234 2.608436,-0.288 4.539999,-2.22658 6.714595,-3.49285 1.910979,-1.84653 1.623752,-5.03954 1.108733,-7.42767 -0.267134,-0.89 -2.233367,-4.3813 -1.735175,-1.80389 0.230332,0.99941 0.468263,1.99708 0.692981,2.99778"
       style="fill:none;stroke:#000000;stroke-width:0.264583px;stroke-linecap:butt;stroke-linejoin:miter;stroke-opacity:1"
       id="path1742" />
    <path
       d="m 85.460024,116.79537 c -1.269504,0.96417 -2.787344,1.71124 -3.656878,3.10423 -0.508718,0.6689 -0.36681,1.76391 0.376515,2.20073 0.909363,0.44155 1.970007,0.27662 2.906079,0.0106 0.888467,-0.25317 1.79264,-0.54768 2.512821,-1.1505 0.639025,-0.51848 1.190142,-1.17941 1.490461,-1.95067 0.342968,-1.18316 -0.254264,-2.64843 -1.447256,-3.08193 -0.368755,-0.0829 -0.768751,-0.23901 -1.140617,-0.0848 -0.45896,0.17805 -0.706101,0.62472 -1.041125,0.95239 z"
       style="fill:none;stroke:#000000;stroke-width:0.264583px;stroke-linecap:butt;stroke-linejoin:miter;stroke-opacity:1"
       id="path1749" />
    <path
       d="m 82.179659,122.10033 c -0.540038,0.96077 0.852965,1.46773 1.545649,1.74787 1.240656,0.50502 2.727772,0.55971 3.878313,-0.20632 1.294474,-0.70628 2.21738,-2.04317 2.329469,-3.52473 0.130239,-0.93146 0.222476,-1.91335 -0.488017,-2.61239 -0.194587,-0.75738 -1.206983,-1.05546 -1.778421,-1.55993 l -0.02488,-0.017"
       style="fill:none;stroke:#000000;stroke-width:0.264583px;stroke-linecap:butt;stroke-linejoin:miter;stroke-opacity:1"
       id="path1755" />
    <path
       sodipodi:nodetypes="cccc"
       d="m 87.121748,240.23763 c 3.04141,-2.98991 6.254803,-4.63263 8.927458,-8.0382 2.693239,-2.43398 5.953494,-4.14852 8.564604,-6.6929 2.90377,-2.43079 5.71423,-5.1317 9.0955,-6.87134"
       style="fill:none;stroke:#000000;stroke-width:0.264583px;stroke-linecap:butt;stroke-linejoin:miter;stroke-opacity:1"
       id="path1762" />
    <path
       sodipodi:nodetypes="ccc"
       d="m 142.05978,91.917775 c -1.25255,12.388975 3.35107,24.380975 3.50613,36.727765 0.74548,6.80686 2.85235,14.23463 3.82275,20.96828"
       style="fill:none;stroke:#000000;stroke-width:0.264583px;stroke-linecap:butt;stroke-linejoin:miter;stroke-opacity:1"
       id="path1767" />
    <path
       d="m 29.673621,170.68266 c 7.093217,1.49759 12.01784,8.3184 19.666644,8.2598 9.208493,1.30526 18.62258,1.94911 27.31599,5.52087 6.342264,4.31959 11.583499,0.68312 14.563839,-5.15502 6.638293,-4.11558 4.840969,-12.25967 8.353062,-18.30695 4.377204,-9.34537 11.471024,-18.75649 22.150024,-21.04062 6.61493,-1.18098 13.8085,1.19236 17.781,-5.81218 1.10449,-2.11786 6.29369,-3.79452 6.06173,-5.50302"
       style="fill:none;stroke:#000000;stroke-width:0.264583px;stroke-linecap:butt;stroke-linejoin:miter;stroke-opacity:1"
       id="path1776" />
    <path
       d="m 123.44226,119.16926 c 0.53699,2.80824 2.00609,8.91537 5.76028,5.1498 3.49452,-2.50432 7.48695,-4.32901 10.7129,-7.18568 1.88177,-2.61849 -0.40852,-6.001 -0.84467,-8.82587 -1.05472,-2.77292 -3.96472,0.68226 -5.81444,1.13608 -3.77092,1.89788 -6.93734,4.82024 -9.08399,8.46263 -0.25677,0.41307 -0.50093,0.83402 -0.73008,1.26304 z"
       style="fill:none;stroke:#000000;stroke-width:0.264583px;stroke-linecap:butt;stroke-linejoin:miter;stroke-opacity:1"
       id="path1787" />
    <path
       d="m 139.46786,159.46491 c 4.23115,0.88605 8.69077,0.25198 12.82418,1.67087 0.42163,0.15021 0.83505,0.32393 1.23538,0.52423"
       style="fill:none;stroke:#000000;stroke-width:0.264583px;stroke-linecap:butt;stroke-linejoin:miter;stroke-opacity:1"
       id="path1813" />
    <path
       d="m 137.06389,168.40411 c 3.18916,0.90283 6.57185,0.57389 9.77534,1.40052 1.0065,-0.0178 2.06024,-0.27813 2.96738,0.32081 0.24674,0.0923 0.49499,0.18063 0.74547,0.26225"
       style="fill:none;stroke:#000000;stroke-width:0.264583px;stroke-linecap:butt;stroke-linejoin:miter;stroke-opacity:1"
       id="path1817" />
    <path
       d="m 135.67539,177.33012 c 2.05581,0.0147 3.86957,1.23693 5.92052,1.35902 1.77212,-0.0189 3.49944,0.19774 5.24436,0.38171 0.62832,0.0423 1.92089,-0.0405 2.01652,0.77413"
       style="fill:none;stroke:#000000;stroke-width:0.264583px;stroke-linecap:butt;stroke-linejoin:miter;stroke-opacity:1"
       id="path1822" />
    <path
       d="m 134.48526,187.84298 c 3.02356,0.0351 5.90123,1.32874 8.91918,1.24935 1.63525,0.42715 3.39929,0.24717 4.96573,0.93257"
       style="fill:none;stroke:#000000;stroke-width:0.264583px;stroke-linecap:butt;stroke-linejoin:miter;stroke-opacity:1"
       id="path1830" />
    <path
       d="m 134.68361,202.71967 c 4.42951,-0.38223 8.74749,1.21603 13.18111,0.93115 1.30418,0.0305 3.03901,-0.20226 3.33673,1.49463"
       style="fill:none;stroke:#000000;stroke-width:0.264583px;stroke-linecap:butt;stroke-linejoin:miter;stroke-opacity:1"
       id="path1837" />
  </g>
</svg>
