<?xml version="1.0" encoding="UTF-8" standalone="no"?>
<svg
   xmlns:dc="http://purl.org/dc/elements/1.1/"
   xmlns:cc="http://creativecommons.org/ns#"
   xmlns:rdf="http://www.w3.org/1999/02/22-rdf-syntax-ns#"
   xmlns:svg="http://www.w3.org/2000/svg"
   xmlns="http://www.w3.org/2000/svg"
   xmlns:sodipodi="http://sodipodi.sourceforge.net/DTD/sodipodi-0.dtd"
   xmlns:inkscape="http://www.inkscape.org/namespaces/inkscape"
   sodipodi:docname="lense.svg"
   inkscape:version="1.0 (4035a4f, 2020-05-01)"
   id="svg968"
   version="1.1"
   viewBox="0 0 210 297"
   height="297mm"
   width="210mm">
  <defs
     id="defs962" />
  <sodipodi:namedview
     inkscape:window-maximized="0"
     inkscape:window-y="24"
     inkscape:window-x="365"
     inkscape:window-height="922"
     inkscape:window-width="1252"
     showgrid="false"
     inkscape:document-rotation="0"
     inkscape:current-layer="layer1"
     inkscape:document-units="mm"
     inkscape:cy="724.793"
     inkscape:cx="429.66829"
     inkscape:zoom="0.84863214"
     inkscape:pageshadow="2"
     inkscape:pageopacity="0.0"
     borderopacity="1.0"
     bordercolor="#666666"
     pagecolor="#ffffff"
     id="base" />
  <metadata
     id="metadata965">
    <rdf:RDF>
      <cc:Work
         rdf:about="">
        <dc:format>image/svg+xml</dc:format>
        <dc:type
           rdf:resource="http://purl.org/dc/dcmitype/StillImage" />
        <dc:title></dc:title>
      </cc:Work>
    </rdf:RDF>
  </metadata>
  <g
     id="layer1"
     inkscape:groupmode="layer"
     inkscape:label="Layer 1">
    <rect
       rx="0"
       ry="10.288614"
       y="145.91129"
       x="49.572422"
       height="66.096558"
       width="20.577229"
       id="rect970"
       style="fill:#ffffff;fill-opacity:1;stroke:#ff7f2a;stroke-width:0.765;stroke-linejoin:bevel" />
    <rect
       rx="0"
       ry="2.9618742"
       y="151.33446"
       x="70.461426"
       height="55.496166"
       width="5.9237485"
       id="rect1533"
       style="fill:#ffffff;fill-opacity:1;stroke:#ff7f2a;stroke-width:0.765;stroke-linejoin:bevel" />
    <rect
       ry="2.9618781"
       y="141.57501"
       x="76.413795"
       height="74.826294"
       width="27.124529"
       id="rect1535"
       style="fill:#ffffff;fill-opacity:1;stroke:#ff7f2a;stroke-width:0.765;stroke-linejoin:bevel" />
    <path
       id="path1539"
       d="m 81.997149,146.53483 c 17.147691,0 17.147691,0 17.147691,0"
       style="fill:none;stroke:#ff7f2a;stroke-width:0.26458300000000001px;stroke-linecap:butt;stroke-linejoin:miter;stroke-opacity:1" />
    <path
       style="fill:none;stroke:#ff7f2a;stroke-width:0.264583px;stroke-linecap:butt;stroke-linejoin:miter;stroke-opacity:1"
       d="m 82.28457,150.23902 c 17.147676,0 17.147676,0 17.147676,0"
       id="path1539-5" />
    <path
       style="fill:none;stroke:#ff7f2a;stroke-width:0.264583px;stroke-linecap:butt;stroke-linejoin:miter;stroke-opacity:1"
       d="m 82.344122,154.19773 c 17.147591,0 17.147591,0 17.147591,0"
       id="path1539-6" />
    <path
       style="fill:none;stroke:#ff7f2a;stroke-width:0.264583px;stroke-linecap:butt;stroke-linejoin:miter;stroke-opacity:1"
       d="m 82.730919,158.07055 c 17.147694,0 17.147694,0 17.147694,0"
       id="path1539-58" />
    <path
       style="fill:none;stroke:#ff7f2a;stroke-width:0.264583px;stroke-linecap:butt;stroke-linejoin:miter;stroke-opacity:1"
       d="m 82.370429,161.90625 c 17.147691,0 17.147691,0 17.147691,0"
       id="path1539-2" />
    <path
       style="fill:none;stroke:#ff7f2a;stroke-width:0.264583px;stroke-linecap:butt;stroke-linejoin:miter;stroke-opacity:1"
       d="m 82.682205,165.95934 c 17.147691,0 17.147691,0 17.147691,0"
       id="path1539-3" />
    <path
       style="fill:none;stroke:#ff7f2a;stroke-width:0.264583px;stroke-linecap:butt;stroke-linejoin:miter;stroke-opacity:1"
       d="m 82.682205,169.91805 c 17.147691,0 17.147691,0 17.147691,0"
       id="path1539-8" />
    <path
       style="fill:none;stroke:#ff7f2a;stroke-width:0.264583px;stroke-linecap:butt;stroke-linejoin:miter;stroke-opacity:1"
       d="m 82.682205,174.06552 c 17.147691,0 17.147691,0 17.147691,0"
       id="path1539-7" />
    <path
       style="fill:none;stroke:#ff7f2a;stroke-width:0.264583px;stroke-linecap:butt;stroke-linejoin:miter;stroke-opacity:1"
       d="m 82.464815,178.02423 c 17.147691,0 17.147691,0 17.147691,0"
       id="path1539-32" />
    <path
       style="fill:none;stroke:#ff7f2a;stroke-width:0.264583px;stroke-linecap:butt;stroke-linejoin:miter;stroke-opacity:1"
       d="m 82.682205,182.70087 c 17.147691,0 17.147691,0 17.147691,0"
       id="path1539-59" />
    <path
       style="fill:none;stroke:#ff7f2a;stroke-width:0.264583px;stroke-linecap:butt;stroke-linejoin:miter;stroke-opacity:1"
       d="m 82.464815,187.4719 c 17.147688,0 17.147688,0 17.147688,0"
       id="path1539-4" />
    <path
       style="fill:none;stroke:#ff7f2a;stroke-width:0.264583px;stroke-linecap:butt;stroke-linejoin:miter;stroke-opacity:1"
       d="m 82.682205,191.43061 c 17.147688,0 17.147688,0 17.147688,0"
       id="path1539-61" />
    <path
       style="fill:none;stroke:#ff7f2a;stroke-width:0.264583px;stroke-linecap:butt;stroke-linejoin:miter;stroke-opacity:1"
       d="m 82.58782,195.67246 c 17.147693,0 17.147693,0 17.147693,0"
       id="path1539-1" />
    <path
       style="fill:none;stroke:#ff7f2a;stroke-width:0.264583px;stroke-linecap:butt;stroke-linejoin:miter;stroke-opacity:1"
       d="m 82.993982,199.53679 c 17.147688,0 17.147688,0 17.147688,0"
       id="path1539-75" />
    <path
       style="fill:none;stroke:#ff7f2a;stroke-width:0.264583px;stroke-linecap:butt;stroke-linejoin:miter;stroke-opacity:1"
       d="m 82.682205,203.90166 c 17.147691,0 17.147691,0 17.147691,0"
       id="path1539-37" />
    <path
       style="fill:none;stroke:#ff7f2a;stroke-width:0.264583px;stroke-linecap:butt;stroke-linejoin:miter;stroke-opacity:1"
       d="m 82.682205,208.04913 c 17.147691,0 17.147691,0 17.147691,0"
       id="path1539-9" />
    <path
       style="fill:none;stroke:#ff7f2a;stroke-width:0.264583px;stroke-linecap:butt;stroke-linejoin:miter;stroke-opacity:1"
       d="m 82.776591,211.57305 c 17.147691,0 17.147691,0 17.147691,0"
       id="path1539-77" />
    <rect
       rx="0"
       ry="2.9618781"
       y="149.46381"
       x="103.53407"
       height="59.643642"
       width="11.162443"
       id="rect1646"
       style="fill:#ffffff;fill-opacity:1;stroke:#ff7f2a;stroke-width:0.765;stroke-linejoin:bevel;stroke-opacity:1" />
    <rect
       rx="0"
       ry="2.9618781"
       y="157.88176"
       x="115.04544"
       height="43.336899"
       width="6.859077"
       id="rect1648"
       style="fill:#ffffff;fill-opacity:1;stroke:#ff7f2a;stroke-width:0.765;stroke-linejoin:bevel;stroke-opacity:1" />
    <path
       id="path1652"
       d="m 49.572423,145.91128 v 0 l -0.623554,7.48263 0.935328,0.93532 -17.147693,-11.53572 0.311777,71.70853 16.212362,-12.15927"
       style="fill:none;stroke:#ff7f2a;stroke-width:0.765;stroke-linecap:butt;stroke-linejoin:miter;stroke-opacity:1;stroke-miterlimit:4;stroke-dasharray:none" />
  </g>
</svg>
